<?xml version="1.0" standalone="no"?>
<!DOCTYPE svg PUBLIC "-//W3C//DTD SVG 20010904//EN"
 "http://www.w3.org/TR/2001/REC-SVG-20010904/DTD/svg10.dtd">
<svg version="1.0" xmlns="http://www.w3.org/2000/svg"
 width="600.000000pt" height="600.000000pt" viewBox="0 0 600.000000 600.000000"
 preserveAspectRatio="xMidYMid meet">
<metadata>
Created by potrace 1.16, written by Peter Selinger 2001-2019
</metadata>
<g transform="translate(0.000000,600.000000) scale(0.100000,-0.100000)"
fill="#000000" stroke="none">
<path d="M0 3000 l0 -3000 3000 0 3000 0 0 3000 0 3000 -3000 0 -3000 0 0
-3000z m4037 1084 c566 -84 1036 -480 1218 -1026 68 -208 84 -353 85 -790 l0
-268 -314 0 -314 0 -4 358 c-5 407 -11 441 -92 607 -134 272 -423 455 -718
455 l-88 0 0 340 0 340 61 0 c34 0 108 -7 166 -16z m-1113 -14 c26 -9 26 -11
26 -115 l0 -105 90 0 90 0 0 109 0 110 44 6 c25 4 57 3 73 -2 l28 -10 3 -279
c3 -315 5 -304 -74 -304 -75 0 -74 -2 -74 131 l0 119 -90 0 -90 0 0 -115 c0
-129 -3 -135 -79 -135 -76 0 -71 -21 -71 300 l0 289 23 4 c41 8 76 7 101 -3z
m-190 -16 c8 -20 8 -58 0 -78 -5 -13 -22 -16 -80 -16 l-74 0 0 -234 c0 -262 5
-246 -75 -246 -80 0 -75 -16 -75 246 l0 234 -74 0 c-79 0 -86 5 -86 55 0 56
-6 55 235 55 194 0 224 -2 229 -16z m1021 -18 c4 -19 2 -43 -4 -55 -11 -19
-20 -21 -111 -21 l-100 0 0 -60 0 -60 90 0 89 0 6 -34 c4 -19 2 -43 -4 -55
-11 -19 -21 -21 -96 -21 l-85 0 0 -70 0 -70 104 0 c85 0 105 -3 110 -16 10
-26 7 -69 -6 -82 -15 -15 -310 -17 -339 -2 -18 10 -19 24 -19 289 0 153 3 281
7 284 3 4 84 7 179 7 l173 0 6 -34z m265 -650 c319 -58 578 -310 644 -629 13
-61 16 -145 16 -417 l0 -340 -254 0 -255 0 -3 263 c-3 298 -6 310 -90 381 -51
44 -91 56 -190 56 l-78 0 0 350 0 350 68 0 c37 -1 101 -7 142 -14z m-2006 -15
c21 -8 25 -19 141 -357 41 -120 66 -207 62 -217 -6 -15 -18 -17 -74 -15 l-68
3 -20 62 -20 63 -96 0 -96 0 -18 -60 c-20 -67 -30 -74 -106 -68 -37 2 -45 7
-47 25 -2 13 22 96 53 185 149 427 126 387 220 387 28 0 59 -4 69 -8z m1015 0
c26 -7 24 -1 146 -356 42 -122 66 -208 62 -218 -6 -15 -17 -17 -74 -15 l-68 3
-20 62 -20 63 -96 0 -96 0 -18 -60 c-20 -67 -30 -74 -106 -68 -37 2 -45 7 -47
25 -2 13 20 89 48 170 29 82 70 201 92 266 31 90 45 121 62 127 25 10 101 11
135 1z m-1747 -13 c9 -7 51 -79 94 -161 l79 -147 5 157 5 158 65 0 65 0 2
-275 c2 -151 -1 -281 -6 -289 -12 -18 -91 -26 -134 -12 -32 11 -42 26 -123
177 l-89 165 -3 -163 c-3 -183 -5 -188 -73 -188 -73 0 -69 -18 -69 289 0 202
3 280 12 289 16 16 149 16 170 0z m1368 -3 c30 -36 7 -95 -108 -276 l-110
-174 106 -3 c58 -1 112 -8 119 -14 19 -16 17 -94 -3 -102 -27 -10 -364 -7
-385 4 -14 8 -19 21 -19 51 0 49 -2 45 127 246 56 89 103 164 103 167 0 3 -48
7 -107 8 l-108 3 -3 39 c-6 68 -12 66 191 66 152 0 187 -3 197 -15z m1004 -11
c51 -26 76 -74 76 -142 0 -63 -19 -104 -59 -128 l-30 -18 23 -26 c31 -37 98
-196 94 -223 -3 -19 -10 -22 -52 -25 -84 -5 -89 -2 -131 99 -41 99 -63 129
-95 129 -19 0 -20 -7 -20 -103 0 -67 -4 -107 -12 -115 -12 -12 -95 -16 -122
-6 -14 5 -16 40 -16 289 0 217 3 285 13 289 6 3 75 4 152 3 119 -2 146 -5 179
-23z m376 -694 c24 -14 58 -45 75 -68 l30 -44 3 -269 3 -269 -166 0 -165 0 0
341 0 341 88 -4 c69 -3 97 -9 132 -28z m-2860 4 c33 -13 41 -22 46 -51 7 -36
-8 -83 -26 -83 -6 0 -28 9 -50 20 -53 27 -104 26 -124 -2 -9 -12 -16 -26 -16
-30 0 -16 49 -51 115 -82 84 -39 121 -79 131 -142 19 -131 -71 -218 -226 -218
-128 0 -190 43 -175 121 7 40 34 44 94 12 55 -28 117 -23 144 12 28 39 11 62
-81 108 -42 21 -89 51 -104 66 -76 75 -51 217 45 264 53 26 167 29 227 5z
m284 6 c26 -9 26 -11 26 -115 l0 -105 90 0 90 0 0 109 0 110 44 6 c25 4 57 3
73 -2 l28 -10 3 -279 c3 -315 5 -304 -74 -304 -75 0 -74 -2 -74 131 l0 119
-90 0 -90 0 0 -115 c0 -129 -3 -135 -79 -135 -76 0 -71 -21 -71 300 0 266 1
289 18 293 31 8 80 7 106 -3z m558 -2 c9 -7 44 -101 78 -208 l63 -195 23 70
c12 39 41 129 63 201 44 142 46 144 118 144 42 0 63 -9 63 -27 0 -25 -183
-557 -194 -565 -18 -13 -141 -9 -158 5 -17 13 -188 517 -188 554 0 12 8 24 18
26 36 10 99 7 114 -5z m1688 -4 c33 -13 41 -22 46 -51 7 -36 -8 -83 -26 -83
-6 0 -28 9 -50 20 -55 28 -105 27 -125 -4 -25 -37 -6 -59 88 -104 96 -46 133
-84 142 -145 20 -133 -70 -221 -225 -221 -128 0 -190 43 -175 121 7 40 34 44
94 12 55 -28 117 -23 144 12 29 39 11 61 -93 114 -110 57 -135 91 -134 176 2
112 70 169 201 169 43 0 89 -6 113 -16z m-855 -28 c4 -19 2 -43 -4 -55 -11
-19 -20 -21 -111 -21 l-100 0 0 -60 0 -60 89 0 89 0 7 -28 c3 -16 1 -41 -4
-55 -10 -26 -13 -27 -96 -27 l-85 0 0 -70 0 -70 104 0 c85 0 105 -3 110 -16
10 -26 7 -69 -6 -82 -15 -15 -310 -17 -339 -2 -18 10 -19 24 -19 280 0 147 3
275 6 284 5 14 31 16 180 16 l173 0 6 -34z m501 10 c3 -13 4 -37 2 -52 -3 -29
-3 -29 -80 -32 l-78 -3 0 -233 c0 -261 5 -246 -75 -246 -80 0 -75 -15 -75 246
l0 233 -77 3 c-78 3 -78 3 -81 32 -2 15 -1 39 2 52 l6 24 225 0 225 0 6 -24z
m-2476 -656 c13 -20 13 -186 0 -211 -10 -17 -22 -19 -113 -19 -67 0 -107 4
-115 12 -13 13 -17 195 -4 214 13 20 36 23 130 21 70 -1 95 -6 102 -17z"/>
<path d="M657 1974 c-4 -4 -7 -51 -7 -105 0 -113 -4 -109 110 -109 54 0 81 4
89 14 8 9 11 47 9 107 l-3 94 -95 3 c-53 1 -99 0 -103 -4z"/>
</g>
</svg>
